<?xml version="1.0" encoding="UTF-8" standalone="no"?>
<!DOCTYPE svg PUBLIC "-//W3C//DTD SVG 1.1//EN" "http://www.w3.org/Graphics/SVG/1.1/DTD/svg11.dtd">
<svg version="1.1" xmlns="http://www.w3.org/2000/svg" xmlns:xlink="http://www.w3.org/1999/xlink" preserveAspectRatio="xMidYMid meet" viewBox="0 0 150 75" width="150" height="75"><defs><path d="M85.53 28.19C86.32 29.31 87.4 29.86 88.84 29.86C89.9 29.86 90.74 29.59 91.31 29C91.85 28.53 92.18 27.79 92.18 27.01C92.18 26.27 91.88 25.56 91.36 25.09C90.82 24.53 89.54 23.98 87.54 23.48C84.25 22.64 81.89 21.53 80.51 20.1C79.12 18.77 78.34 16.81 78.39 14.74C78.39 13.31 78.77 11.88 79.48 10.71C80.29 9.38 81.4 8.32 82.73 7.73C84.17 7.02 86.18 6.65 88.7 6.65C91.8 6.65 94.16 7.3 95.78 8.63C97.41 9.93 98.39 12.04 98.69 14.92C97.98 14.97 92.34 15.34 91.63 15.39C91.44 14.15 91.06 13.25 90.44 12.66C89.81 12.07 89 11.79 87.94 11.79C87.07 11.79 86.42 12.01 85.99 12.41C85.58 12.78 85.31 13.34 85.34 13.96C85.34 14.43 85.56 14.86 85.88 15.14C86.23 15.51 87.07 15.85 88.4 16.16C91.69 16.97 94.02 17.77 95.46 18.61C96.9 19.45 97.93 20.47 98.55 21.68C99.2 22.92 99.53 24.35 99.5 25.8C99.5 27.54 99.07 29.27 98.2 30.73C97.31 32.25 96.06 33.43 94.59 34.14C93.04 34.92 91.09 35.32 88.76 35.32C84.63 35.32 81.78 34.42 80.18 32.59C78.58 30.76 77.63 28.47 77.44 25.68C78.87 25.57 83.86 25.2 84.58 25.15C84.74 26.48 85.04 27.48 85.53 28.19ZM1.71 7.14C9.22 7.14 13.39 7.14 14.22 7.14C16.53 7.14 18.32 7.36 19.54 7.83C20.73 8.26 21.79 9.16 22.5 10.37C23.28 11.7 23.66 13.25 23.63 14.86C23.72 17.59 22.5 20.19 20.4 21.56C19.59 22.08 18.7 22.45 17.77 22.64C18.45 22.86 19.13 23.23 19.73 23.67C20.19 24.1 20.57 24.59 20.92 25.12C21.33 25.65 21.68 26.24 21.98 26.86C22.22 27.39 23.43 30.07 25.61 34.89C24.76 34.89 17.95 34.89 17.1 34.89C14.69 29.77 13.35 26.93 13.08 26.36C12.56 25.28 12.13 24.56 11.72 24.22C11.18 23.79 10.53 23.57 9.88 23.57C9.83 23.57 9.62 23.57 9.22 23.57C9.22 24.32 9.22 28.07 9.22 34.82L1.71 34.82L1.71 34.85C1.71 18.23 1.71 8.99 1.71 7.14ZM14.38 17.99C14.87 17.9 15.3 17.59 15.6 17.12C16.34 16.01 16.23 14.43 15.33 13.47C14.84 13 13.89 12.75 12.54 12.75C12.32 12.75 11.21 12.75 9.22 12.75C9.22 13.32 9.22 17.8 9.22 18.36C11.13 18.36 12.19 18.36 12.4 18.36C13.08 18.3 13.73 18.18 14.38 17.99ZM8.09 61.11C8.85 62.23 9.96 62.82 11.4 62.82C12.45 62.82 13.3 62.54 13.87 61.95C14.41 61.45 14.74 60.74 14.74 59.96C14.74 59.22 14.44 58.51 13.92 58.04C13.38 57.48 12.1 56.93 10.07 56.43C6.78 55.59 4.42 54.48 3.04 53.05C1.65 51.72 0.87 49.77 0.92 47.69C0.92 46.26 1.3 44.84 2.01 43.66C2.82 42.32 3.94 41.27 5.26 40.68C6.7 39.97 8.71 39.6 11.23 39.6C14.33 39.6 16.69 40.25 18.32 41.58C19.94 42.91 20.89 44.99 21.19 47.88C20.49 47.92 14.84 48.29 14.14 48.34C13.95 47.1 13.57 46.2 12.94 45.61C12.35 45.02 11.51 44.75 10.45 44.77C9.58 44.77 8.93 44.99 8.49 45.43C8.06 45.8 7.81 46.36 7.84 46.98C7.84 47.44 8.06 47.88 8.38 48.15C8.74 48.53 9.58 48.87 10.91 49.18C14.19 49.98 16.53 50.79 17.96 51.63C19.4 52.46 20.43 53.48 21.06 54.69C21.71 55.93 22.03 57.36 22.03 58.79C22.03 60.52 21.57 62.23 20.73 63.68C19.84 65.2 18.59 66.38 17.12 67.09C15.57 67.87 13.62 68.27 11.29 68.27C7.16 68.27 4.31 67.37 2.71 65.54C1.11 63.68 0.22 61.39 0 58.6C0 58.6 6.42 58.13 7.14 58.07C7.3 59.41 7.6 60.4 8.09 61.11Z" id="a2skUedwS"></path><path d="M85.53 28.19C86.32 29.31 87.4 29.86 88.84 29.86C89.9 29.86 90.74 29.59 91.31 29C91.85 28.53 92.18 27.79 92.18 27.01C92.18 26.27 91.88 25.56 91.36 25.09C90.82 24.53 89.54 23.98 87.54 23.48C84.25 22.64 81.89 21.53 80.51 20.1C79.12 18.77 78.34 16.81 78.39 14.74C78.39 13.31 78.77 11.88 79.48 10.71C80.29 9.38 81.4 8.32 82.73 7.73C84.17 7.02 86.18 6.65 88.7 6.65C91.8 6.65 94.16 7.3 95.78 8.63C97.41 9.93 98.39 12.04 98.69 14.92C97.98 14.97 92.34 15.34 91.63 15.39C91.44 14.15 91.06 13.25 90.44 12.66C89.81 12.07 89 11.79 87.94 11.79C87.07 11.79 86.42 12.01 85.99 12.41C85.58 12.78 85.31 13.34 85.34 13.96C85.34 14.43 85.56 14.86 85.88 15.14C86.23 15.51 87.07 15.85 88.4 16.16C91.69 16.97 94.02 17.77 95.46 18.61C96.9 19.45 97.93 20.47 98.55 21.68C99.2 22.92 99.53 24.35 99.5 25.8C99.5 27.54 99.07 29.27 98.2 30.73C97.31 32.25 96.06 33.43 94.59 34.14C93.04 34.92 91.09 35.32 88.76 35.32C84.63 35.32 81.78 34.42 80.18 32.59C78.58 30.76 77.63 28.47 77.44 25.68C78.87 25.57 83.86 25.2 84.58 25.15C84.74 26.48 85.04 27.48 85.53 28.19ZM1.71 7.14C9.22 7.14 13.39 7.14 14.22 7.14C16.53 7.14 18.32 7.36 19.54 7.83C20.73 8.26 21.79 9.16 22.5 10.37C23.28 11.7 23.66 13.25 23.63 14.86C23.72 17.59 22.5 20.19 20.4 21.56C19.59 22.08 18.7 22.45 17.77 22.64C18.45 22.86 19.13 23.23 19.73 23.67C20.19 24.1 20.57 24.59 20.92 25.12C21.33 25.65 21.68 26.24 21.98 26.86C22.22 27.39 23.43 30.07 25.61 34.89C24.76 34.89 17.95 34.89 17.1 34.89C14.69 29.77 13.35 26.93 13.08 26.36C12.56 25.28 12.13 24.56 11.72 24.22C11.18 23.79 10.53 23.57 9.88 23.57C9.83 23.57 9.62 23.57 9.22 23.57C9.22 24.32 9.22 28.07 9.22 34.82L1.71 34.82L1.71 34.85C1.71 18.23 1.71 8.99 1.71 7.14ZM14.38 17.99C14.87 17.9 15.3 17.59 15.6 17.12C16.34 16.01 16.23 14.43 15.33 13.47C14.84 13 13.89 12.75 12.54 12.75C12.32 12.75 11.21 12.75 9.22 12.75C9.22 13.32 9.22 17.8 9.22 18.36C11.13 18.36 12.19 18.36 12.4 18.36C13.08 18.3 13.73 18.18 14.38 17.99ZM8.09 61.11C8.85 62.23 9.96 62.82 11.4 62.82C12.45 62.82 13.3 62.54 13.87 61.95C14.41 61.45 14.74 60.74 14.74 59.96C14.74 59.22 14.44 58.51 13.92 58.04C13.38 57.48 12.1 56.93 10.07 56.43C6.78 55.59 4.42 54.48 3.04 53.05C1.65 51.72 0.87 49.77 0.92 47.69C0.92 46.26 1.3 44.84 2.01 43.66C2.82 42.32 3.94 41.27 5.26 40.68C6.7 39.97 8.71 39.6 11.23 39.6C14.33 39.6 16.69 40.25 18.32 41.58C19.94 42.91 20.89 44.99 21.19 47.88C20.49 47.92 14.84 48.29 14.14 48.34C13.95 47.1 13.57 46.2 12.94 45.61C12.35 45.02 11.51 44.75 10.45 44.77C9.58 44.77 8.93 44.99 8.49 45.43C8.06 45.8 7.81 46.36 7.84 46.98C7.84 47.44 8.06 47.88 8.38 48.15C8.74 48.53 9.58 48.87 10.91 49.18C14.19 49.98 16.53 50.79 17.96 51.63C19.4 52.46 20.43 53.48 21.06 54.69C21.71 55.93 22.03 57.36 22.03 58.79C22.03 60.52 21.57 62.23 20.73 63.68C19.84 65.2 18.59 66.38 17.12 67.09C15.57 67.87 13.62 68.27 11.29 68.27C7.16 68.27 4.31 67.37 2.71 65.54C1.11 63.68 0.22 61.39 0 58.6C0 58.6 6.42 58.13 7.14 58.07C7.3 59.41 7.6 60.4 8.09 61.11Z" id="cXp7sO1IC"></path><path d="M40.57 63.96C39.64 65.36 38.42 66.44 37.04 67.16C35.63 67.87 33.84 68.24 31.67 68.24C29.03 68.24 26.86 67.81 25.21 66.94C23.53 66.07 22.09 64.52 20.87 62.32C19.65 60.12 19.05 57.3 19.05 53.86C19.05 49.27 20.11 45.74 22.25 43.29C24.39 40.84 27.41 39.6 31.31 39.6C34.38 39.6 36.77 40.31 38.53 41.71C40.27 43.13 41.57 45.3 42.44 48.22C41.78 48.38 36.48 49.72 35.82 49.89C35.66 49.24 35.41 48.59 35.09 48.03C34.68 47.38 34.16 46.88 33.54 46.51C32.91 46.14 32.21 45.98 31.5 45.98C29.79 45.98 28.49 46.76 27.6 48.34C26.92 49.49 26.56 51.32 26.56 53.8C26.56 56.86 26.97 58.97 27.79 60.12C28.6 61.27 29.74 61.82 31.23 61.82C32.67 61.82 33.75 61.36 34.49 60.46C35.22 59.5 35.76 58.17 36.09 56.43C37.4 56.88 42 58.47 42.66 58.69C42.3 60.59 41.57 62.38 40.57 63.96ZM58.91 49.77L67.1 49.77L67.1 40.06L74.65 40.06L74.65 67.78L67.1 67.78L67.1 56.56L58.91 56.56L58.91 67.78L51.42 67.78L51.42 40.06L58.91 40.06L58.91 49.77Z" id="atRuDatS8"></path><path d="M40.57 63.96C39.64 65.36 38.42 66.44 37.04 67.16C35.63 67.87 33.84 68.24 31.67 68.24C29.03 68.24 26.86 67.81 25.21 66.94C23.53 66.07 22.09 64.52 20.87 62.32C19.65 60.12 19.05 57.3 19.05 53.86C19.05 49.27 20.11 45.74 22.25 43.29C24.39 40.84 27.41 39.6 31.31 39.6C34.38 39.6 36.77 40.31 38.53 41.71C40.27 43.13 41.57 45.3 42.44 48.22C41.78 48.38 36.48 49.72 35.82 49.89C35.66 49.24 35.41 48.59 35.09 48.03C34.68 47.38 34.16 46.88 33.54 46.51C32.91 46.14 32.21 45.98 31.5 45.98C29.79 45.98 28.49 46.76 27.6 48.34C26.92 49.49 26.56 51.32 26.56 53.8C26.56 56.86 26.97 58.97 27.79 60.12C28.6 61.27 29.74 61.82 31.23 61.82C32.67 61.82 33.75 61.36 34.49 60.46C35.22 59.5 35.76 58.17 36.09 56.43C37.4 56.88 42 58.47 42.66 58.69C42.3 60.59 41.57 62.38 40.57 63.96ZM58.91 49.77L67.1 49.77L67.1 40.06L74.65 40.06L74.65 67.78L67.1 67.78L67.1 56.56L58.91 56.56L58.91 67.78L51.42 67.78L51.42 40.06L58.91 40.06L58.91 49.77Z" id="a3oKh2i4Wb"></path><path d="M86.15 39.57C90.19 39.57 93.29 40.81 95.49 43.29C97.69 45.77 98.77 49.24 98.77 53.7C98.77 56.96 98.28 59.59 97.33 61.67C96.41 63.72 94.97 65.39 93.21 66.51C91.39 67.65 89.14 68.24 86.45 68.24C83.71 68.24 81.46 67.74 79.67 66.75C77.82 65.7 76.3 64.06 75.3 62.04C74.19 59.87 73.62 57.17 73.62 53.92C73.62 49.39 74.73 45.86 76.93 43.35C79.12 40.84 82.22 39.57 86.15 39.57ZM86.18 61.82C87.78 61.82 89.03 61.24 89.93 60.03C90.82 58.82 91.25 56.68 91.25 53.58C91.25 50.98 90.79 49.05 89.87 47.88C88.95 46.66 87.7 46.08 86.13 46.08C84.74 46.01 83.41 46.7 82.49 47.9C81.57 49.11 81.11 51.13 81.11 53.95C81.11 56.74 81.57 58.76 82.46 60C83.36 61.2 84.6 61.82 86.18 61.82ZM118.99 39.57C123.03 39.57 126.15 40.81 128.32 43.29C130.49 45.77 131.6 49.24 131.6 53.7C131.6 56.96 131.11 59.59 130.16 61.67C129.24 63.72 127.8 65.39 126.04 66.51C124.22 67.65 121.97 68.24 119.28 68.24C116.54 68.24 114.29 67.74 112.5 66.75C110.66 65.7 109.13 64.06 108.13 62.04C107.02 59.87 106.45 57.17 106.45 53.92C106.45 49.39 107.56 45.86 109.76 43.35C111.96 40.84 115.05 39.57 118.99 39.57ZM119.01 61.82C120.61 61.82 121.86 61.24 122.76 60.03C123.65 58.82 124.09 56.68 124.09 53.58C124.09 50.98 123.63 49.05 122.7 47.88C121.78 46.66 120.53 46.08 118.96 46.08C117.57 46.01 116.22 46.7 115.32 47.9C114.4 49.11 113.94 51.13 113.94 53.95C113.94 56.74 114.4 58.76 115.29 60C116.19 61.2 117.44 61.82 119.01 61.82Z" id="e25geRih1X"></path><path d="M86.15 39.57C90.19 39.57 93.29 40.81 95.49 43.29C97.69 45.77 98.77 49.24 98.77 53.7C98.77 56.96 98.28 59.59 97.33 61.67C96.41 63.72 94.97 65.39 93.21 66.51C91.39 67.65 89.14 68.24 86.45 68.24C83.71 68.24 81.46 67.74 79.67 66.75C77.82 65.7 76.3 64.06 75.3 62.04C74.19 59.87 73.62 57.17 73.62 53.92C73.62 49.39 74.73 45.86 76.93 43.35C79.12 40.84 82.22 39.57 86.15 39.57ZM86.18 61.82C87.78 61.82 89.03 61.24 89.93 60.03C90.82 58.82 91.25 56.68 91.25 53.58C91.25 50.98 90.79 49.05 89.87 47.88C88.95 46.66 87.7 46.08 86.13 46.08C84.74 46.01 83.41 46.7 82.49 47.9C81.57 49.11 81.11 51.13 81.11 53.95C81.11 56.74 81.57 58.76 82.46 60C83.36 61.2 84.6 61.82 86.18 61.82ZM118.99 39.57C123.03 39.57 126.15 40.81 128.32 43.29C130.49 45.77 131.6 49.24 131.6 53.7C131.6 56.96 131.11 59.59 130.16 61.67C129.24 63.72 127.8 65.39 126.04 66.51C124.22 67.65 121.97 68.24 119.28 68.24C116.54 68.24 114.29 67.74 112.5 66.75C110.66 65.7 109.13 64.06 108.13 62.04C107.02 59.87 106.45 57.17 106.45 53.92C106.45 49.39 107.56 45.86 109.76 43.35C111.96 40.84 115.05 39.57 118.99 39.57ZM119.01 61.82C120.61 61.82 121.86 61.24 122.76 60.03C123.65 58.82 124.09 56.68 124.09 53.58C124.09 50.98 123.63 49.05 122.7 47.88C121.78 46.66 120.53 46.08 118.96 46.08C117.57 46.01 116.22 46.7 115.32 47.9C114.4 49.11 113.94 51.13 113.94 53.95C113.94 56.74 114.4 58.76 115.29 60C116.19 61.2 117.44 61.82 119.01 61.82Z" id="brxTjX8tV"></path><path d="M138.3 40.06L138.3 60.96L150 60.96L150 67.78L130.79 67.78L130.79 40.06L130.82 40.06L138.3 40.06Z" id="f96z5Z7LH"></path><path d="M138.3 40.06L138.3 60.96L150 60.96L150 67.78L130.79 67.78L130.79 40.06L130.82 40.06L138.3 40.06Z" id="d2tpuuxuqj"></path><path d="M122.02 37.66C114.49 44.15 104.59 43.67 99.91 36.59C95.24 29.51 97.57 18.51 105.11 12.01C112.65 5.52 122.55 6 127.22 13.08C131.89 20.17 129.56 31.17 122.02 37.66Z" id="aduuvCeeM"></path><path d="M122.02 37.66C114.49 44.15 104.59 43.67 99.91 36.59C95.24 29.51 97.57 18.51 105.11 12.01C112.65 5.52 122.55 6 127.22 13.08C131.89 20.17 129.56 31.17 122.02 37.66Z" id="c67Wd0tA6I"></path><path d="M112.3 26.86C112.87 27.73 113.3 28.66 113.62 29.68C113.81 30.45 113.76 31.29 113.49 32.04C113.14 32.96 112.57 33.74 111.81 34.3C110.91 35.01 110.15 35.41 109.5 35.54C108.88 35.66 108.22 35.54 107.63 35.23C106.98 34.85 106.41 34.33 105.97 33.65C106.21 33.4 108.07 31.41 108.31 31.17C108.5 31.51 108.74 31.82 109.01 32.06C109.2 32.22 109.42 32.31 109.66 32.31C109.85 32.31 110.04 32.22 110.18 32.1C110.45 31.91 110.64 31.54 110.61 31.17C110.53 30.64 110.34 30.11 110.04 29.71C109.79 29.3 108.52 27.27 106.24 23.6C106.43 23.46 107.33 22.73 108.96 21.43C111.04 24.81 112.15 26.62 112.3 26.86ZM117.86 25.62C118.4 25.8 118.97 25.68 119.43 25.28C119.76 25.03 120.03 24.69 120.14 24.25C120.3 23.69 120.03 23.08 119.54 22.89C119.46 22.86 119.38 22.83 119.3 22.83C118.97 22.8 118.4 22.95 117.56 23.35C116.18 24.01 115.09 24.25 114.28 24.16C113.49 24.07 112.76 23.6 112.32 22.83C112 22.3 111.83 21.68 111.81 21.06C111.81 20.35 111.97 19.64 112.32 19.05C112.84 18.21 113.46 17.5 114.22 16.94C115.36 16.04 116.36 15.61 117.23 15.61C118.1 15.61 118.91 16.07 119.68 17.03C119.43 17.25 117.48 19.01 117.23 19.23C116.74 18.52 115.82 18.36 115.2 18.92C115.19 18.93 115.12 19.01 115.12 19.01C114.85 19.2 114.66 19.48 114.55 19.82C114.47 20.07 114.52 20.35 114.66 20.56C114.76 20.72 114.93 20.84 115.12 20.84C115.33 20.88 115.71 20.75 116.26 20.47C117.61 19.82 118.65 19.45 119.35 19.32C119.95 19.2 120.57 19.26 121.14 19.54C121.66 19.79 122.09 20.22 122.39 20.75C122.77 21.37 122.99 22.11 123.01 22.89C123.04 23.69 122.85 24.47 122.47 25.15C121.98 25.99 121.36 26.7 120.63 27.26C119.13 28.44 117.91 28.93 116.93 28.75C115.88 28.56 115.01 27.94 114.38 27.04C114.88 26.6 116.61 25.04 116.85 24.81C117.12 25.18 117.48 25.46 117.86 25.62Z" id="b5GTPsTwOo"></path><path d="M112.3 26.86C112.87 27.73 113.3 28.66 113.62 29.68C113.81 30.45 113.76 31.29 113.49 32.04C113.14 32.96 112.57 33.74 111.81 34.3C110.91 35.01 110.15 35.41 109.5 35.54C108.88 35.66 108.22 35.54 107.63 35.23C106.98 34.85 106.41 34.33 105.97 33.65C106.21 33.4 108.07 31.41 108.31 31.17C108.5 31.51 108.74 31.82 109.01 32.06C109.2 32.22 109.42 32.31 109.66 32.31C109.85 32.31 110.04 32.22 110.18 32.1C110.45 31.91 110.64 31.54 110.61 31.17C110.53 30.64 110.34 30.11 110.04 29.71C109.79 29.3 108.52 27.27 106.24 23.6C106.43 23.46 107.33 22.73 108.96 21.43C111.04 24.81 112.15 26.62 112.3 26.86ZM117.86 25.62C118.4 25.8 118.97 25.68 119.43 25.28C119.76 25.03 120.03 24.69 120.14 24.25C120.3 23.69 120.03 23.08 119.54 22.89C119.46 22.86 119.38 22.83 119.3 22.83C118.97 22.8 118.4 22.95 117.56 23.35C116.18 24.01 115.09 24.25 114.28 24.16C113.49 24.07 112.76 23.6 112.32 22.83C112 22.3 111.83 21.68 111.81 21.06C111.81 20.35 111.97 19.64 112.32 19.05C112.84 18.21 113.46 17.5 114.22 16.94C115.36 16.04 116.36 15.61 117.23 15.61C118.1 15.61 118.91 16.07 119.68 17.03C119.43 17.25 117.48 19.01 117.23 19.23C116.74 18.52 115.82 18.36 115.2 18.92C115.19 18.93 115.12 19.01 115.12 19.01C114.85 19.2 114.66 19.48 114.55 19.82C114.47 20.07 114.52 20.35 114.66 20.56C114.76 20.72 114.93 20.84 115.12 20.84C115.33 20.88 115.71 20.75 116.26 20.47C117.61 19.82 118.65 19.45 119.35 19.32C119.95 19.2 120.57 19.26 121.14 19.54C121.66 19.79 122.09 20.22 122.39 20.75C122.77 21.37 122.99 22.11 123.01 22.89C123.04 23.69 122.85 24.47 122.47 25.15C121.98 25.99 121.36 26.7 120.63 27.26C119.13 28.44 117.91 28.93 116.93 28.75C115.88 28.56 115.01 27.94 114.38 27.04C114.88 26.6 116.61 25.04 116.85 24.81C117.12 25.18 117.48 25.46 117.86 25.62Z" id="h4NIVzUAq"></path></defs><g><g><g><use xlink:href="#a2skUedwS" opacity="1" fill="#000000" fill-opacity="1"></use><g><use xlink:href="#a2skUedwS" opacity="1" fill-opacity="0" stroke="#000000" stroke-width="1" stroke-opacity="0"></use></g></g><g><use xlink:href="#cXp7sO1IC" opacity="1" fill="#000000" fill-opacity="0"></use><g><use xlink:href="#cXp7sO1IC" opacity="1" fill-opacity="0" stroke="#000000" stroke-width="1" stroke-opacity="0"></use></g></g><g><use xlink:href="#atRuDatS8" opacity="1" fill="#000000" fill-opacity="1"></use><g><use xlink:href="#atRuDatS8" opacity="1" fill-opacity="0" stroke="#000000" stroke-width="1" stroke-opacity="0"></use></g></g><g><use xlink:href="#a3oKh2i4Wb" opacity="1" fill="#000000" fill-opacity="0"></use><g><use xlink:href="#a3oKh2i4Wb" opacity="1" fill-opacity="0" stroke="#000000" stroke-width="1" stroke-opacity="0"></use></g></g><g><use xlink:href="#e25geRih1X" opacity="1" fill="#000000" fill-opacity="1"></use><g><use xlink:href="#e25geRih1X" opacity="1" fill-opacity="0" stroke="#000000" stroke-width="1" stroke-opacity="0"></use></g></g><g><use xlink:href="#brxTjX8tV" opacity="1" fill="#000000" fill-opacity="0"></use><g><use xlink:href="#brxTjX8tV" opacity="1" fill-opacity="0" stroke="#000000" stroke-width="1" stroke-opacity="0"></use></g></g><g><use xlink:href="#f96z5Z7LH" opacity="1" fill="#000000" fill-opacity="1"></use><g><use xlink:href="#f96z5Z7LH" opacity="1" fill-opacity="0" stroke="#000000" stroke-width="1" stroke-opacity="0"></use></g></g><g><use xlink:href="#d2tpuuxuqj" opacity="1" fill="#000000" fill-opacity="0"></use><g><use xlink:href="#d2tpuuxuqj" opacity="1" fill-opacity="0" stroke="#000000" stroke-width="1" stroke-opacity="0"></use></g></g><g><use xlink:href="#aduuvCeeM" opacity="1" fill="#ffffff" fill-opacity="0"></use><g><use xlink:href="#aduuvCeeM" opacity="1" fill-opacity="0" stroke="#000000" stroke-width="1" stroke-opacity="0"></use></g></g><g><use xlink:href="#c67Wd0tA6I" opacity="1" fill="#000000" fill-opacity="0"></use><g><use xlink:href="#c67Wd0tA6I" opacity="1" fill-opacity="0" stroke="#000000" stroke-width="4" stroke-opacity="1"></use></g></g><g><use xlink:href="#b5GTPsTwOo" opacity="1" fill="#000000" fill-opacity="1"></use><g><use xlink:href="#b5GTPsTwOo" opacity="1" fill-opacity="0" stroke="#000000" stroke-width="1" stroke-opacity="0"></use></g></g><g><use xlink:href="#h4NIVzUAq" opacity="1" fill="#000000" fill-opacity="0"></use><g><use xlink:href="#h4NIVzUAq" opacity="1" fill-opacity="0" stroke="#000000" stroke-width="1" stroke-opacity="0"></use></g></g></g></g></svg>