<svg id="Capa_1" enable-background="new 0 0 512 512" height="512" viewBox="0 0 512 512" width="512" xmlns="http://www.w3.org/2000/svg"><g><path d="m451.292 501.851v-84.717c0-37.078-25.12-69.446-61.038-78.649l-69.184-17.725c-8.98-2.301-15.26-10.393-15.26-19.662v-45.717h-99.62v45.717c0 9.27-6.28 17.361-15.26 19.662l-69.184 17.726c-35.918 9.203-61.038 41.57-61.038 78.649v84.717c0 5.605 4.544 10.149 10.149 10.149h370.288c5.604-.001 10.147-4.545 10.147-10.15z" fill="#9dc7fb"/><path d="m206.19 255.381v45.717c0 6.722-3.313 12.813-8.552 16.536 13.218 17.864 34.435 29.451 58.363 29.451s45.145-11.587 58.363-29.451c-5.24-3.723-8.552-9.814-8.552-16.536v-45.717z" fill="#ffcbbe"/><path d="m206.19 255.381v45.717c0 2.251-.379 4.427-1.07 6.471 14.692 9.39 32.15 14.834 50.88 14.834 18.73 0 36.188-5.444 50.88-14.834-.691-2.044-1.07-4.22-1.07-6.471v-45.717z" fill="#eaac9d"/><path d="m161.394 197.351v-83.492h189.212v83.492c0 52.249-42.356 94.606-94.606 94.606-52.249 0-94.606-42.357-94.606-94.606z" fill="#ffcbbe"/><path d="m320.16 113.859v83.492c0 47.066-34.372 86.099-79.383 93.381 4.957.802 10.04 1.225 15.223 1.225 52.249 0 94.606-42.356 94.606-94.606v-83.492z" fill="#eaac9d"/><path d="m375.177 470.86h76.115v30.991c0 5.605-4.544 10.149-10.149 10.149h-65.966z" fill="#ffcbbe"/><g><path d="m375.177 512c-4.204 0-7.611-3.407-7.611-7.612v-43.171c0-4.204 3.408-7.611 7.611-7.611s7.612 3.407 7.612 7.611v43.171c0 4.205-3.408 7.612-7.612 7.612z" fill="#80b5fb"/></g><path d="m60.708 470.86h76.115v41.14h-65.967c-5.605 0-10.149-4.544-10.149-10.149z" fill="#ffcbbe"/><g><path d="m136.823 512c-4.204 0-7.611-3.407-7.611-7.612v-48.751c0-4.204 3.408-7.612 7.611-7.612 4.204 0 7.611 3.407 7.611 7.612v48.751c0 4.205-3.408 7.612-7.611 7.612z" fill="#80b5fb"/></g><path d="m189.794 425.106c.865 3.458 3.968 5.767 7.378 5.767.611 0 1.232-.074 1.852-.229 4.078-1.02 6.558-5.153 5.538-9.231l-24.458-97.832c-.004-.015-.01-.029-.013-.044l-14.744 3.777z" fill="#766d78"/><path d="m311.088 438.195c.619.155 1.24.229 1.852.229 3.41 0 6.514-2.309 7.378-5.767l26.336-105.343-14.744-3.777c-.004.015-.01.029-.013.044l-26.347 105.383c-1.02 4.079 1.46 8.211 5.538 9.231z" fill="#766d78"/><g><path d="m142.326 130.384h227.348c4.863 0 7.764-5.42 5.067-9.467l-24.135-36.202h-189.212l-24.135 36.202c-2.697 4.047.204 9.467 5.067 9.467z" fill="#e2a66f"/><path d="m374.741 120.918-24.135-36.202h-30.446l24.135 36.202c2.698 4.047-.203 9.467-5.067 9.467h30.446c4.863 0 7.764-5.421 5.067-9.467z" fill="#d5995c"/><path d="m350.606 84.715h-189.212l17.598-13.216-12.127-17.23 6.75-37.562c1.738-9.67 10.152-16.707 19.977-16.707h124.815c9.825 0 18.24 7.037 19.977 16.707l6.75 37.562-12.484 15.24z" fill="#e2a66f"/><path d="m338.385 16.708c-1.738-9.67-10.152-16.708-19.977-16.708h-30.446c9.825 0 18.24 7.038 19.977 16.708l6.75 37.562h30.446z" fill="#d5995c"/><path d="m161.394 84.715h189.212l-5.471-30.446h-178.27z" fill="#edbb87"/><path d="m345.135 54.27h-30.446l5.471 30.446h30.446z" fill="#e3a670"/></g><path d="m286.387 406.961v-7.557c0-3.363-2.726-6.089-6.089-6.089h-48.595c-3.363 0-6.089 2.726-6.089 6.089v7.557c0 3.363-2.726 6.089-6.089 6.089h-34.035c-3.363 0-6.089 2.726-6.089 6.089v79.16c0 3.363 2.726 6.089 6.089 6.089h141.02c3.363 0 6.089-2.726 6.089-6.089v-79.16c0-3.363-2.726-6.089-6.089-6.089h-34.034c-3.363.001-6.089-2.726-6.089-6.089z" fill="#655e67"/><g><path d="m326.51 413.051h-30.446c3.363 0 6.089 2.726 6.089 6.089v79.16c0 3.363-2.726 6.089-6.089 6.089h30.446c3.363 0 6.089-2.726 6.089-6.089v-79.16c0-3.363-2.726-6.089-6.089-6.089z" fill="#544f56"/></g><path d="m179.401 451.108v15.223h153.198v-15.223z" fill="#766d78"/><path d="m332.599 451.108h-30.446v15.223h30.446z" fill="#655e67"/><circle cx="256" cy="458.72" fill="#f7f6f7" r="21.205"/><path d="m256 437.515c-3.288 0-6.388.77-9.165 2.105 7.115 3.421 12.039 10.676 12.039 19.099s-4.924 15.678-12.039 19.099c2.777 1.335 5.878 2.105 9.165 2.105 11.711 0 21.205-9.494 21.205-21.204s-9.494-21.204-21.205-21.204z" fill="#e2dfe3"/></g></svg>